HIERARCHY
ROOT Hips
{
 OFFSET 0.000000 0.000000 0.000000
 CHANNELS 6 Xposition Yposition Zposition Yrotation Xrotation Zrotation
 JOINT Chest
 {
  OFFSET 0.000000 10.354800 0.006500
  CHANNELS 3 Yrotation Xrotation Zrotation
  JOINT Chest2
  {
   OFFSET 0.000000 10.435800 -0.013200
   CHANNELS 3 Yrotation Xrotation Zrotation
   JOINT Chest3
   {
    OFFSET 0.000000 10.393700 0.000000
    CHANNELS 3 Yrotation Xrotation Zrotation
    JOINT Chest4
    {
     OFFSET 0.000000 10.383100 0.000000
     CHANNELS 3 Yrotation Xrotation Zrotation
     JOINT Neck
     {
      OFFSET 0.000000 15.694000 0.000000
      CHANNELS 3 Yrotation Xrotation Zrotation
      JOINT Head
      {
       OFFSET 0.000000 9.711000 -0.028000
       CHANNELS 3 Yrotation Xrotation Zrotation
       End Site
       {
        OFFSET 0.000000 18.578700 -0.014800
       }
      }
     }
     JOINT RightCollar
     {
      OFFSET -3.157200 10.367500 0.000000
      CHANNELS 3 Yrotation Xrotation Zrotation
      JOINT RightShoulder
      {
       OFFSET -14.482500 0.000000 0.000000
       CHANNELS 3 Yrotation Xrotation Zrotation
       JOINT RightElbow
       {
        OFFSET 0.000000 -31.707800 0.000000
        CHANNELS 3 Yrotation Xrotation Zrotation
        JOINT RightWrist
        {
         OFFSET 0.000000 -25.659300 0.000000
         CHANNELS 3 Yrotation Xrotation Zrotation
         End Site
         {
          OFFSET 0.000000 -18.994300 0.000000
         }
        }
       }
      }
     }
     JOINT LeftCollar
     {
      OFFSET 3.157200 10.367500 0.000000
      CHANNELS 3 Yrotation Xrotation Zrotation
      JOINT LeftShoulder
      {
       OFFSET 14.482500 0.000000 0.000000
       CHANNELS 3 Yrotation Xrotation Zrotation
       JOINT LeftElbow
       {
        OFFSET 0.000000 -31.707800 0.000000
        CHANNELS 3 Yrotation Xrotation Zrotation
        JOINT LeftWrist
        {
         OFFSET 0.000000 -25.659300 0.000000
         CHANNELS 3 Yrotation Xrotation Zrotation
         End Site
         {
          OFFSET 0.000000 -18.994300 0.000000
         }
        }
       }
      }
     }
    }
   }
  }
 }
 JOINT RightHip
 {
  OFFSET -8.365600 -0.032100 -0.003200
  CHANNELS 3 Yrotation Xrotation Zrotation
  JOINT RightKnee
  {
   OFFSET 0.000000 -43.980000 0.003100
   CHANNELS 3 Yrotation Xrotation Zrotation
   JOINT RightAnkle
   {
    OFFSET 0.000000 -42.882800 0.005200
    CHANNELS 3 Yrotation Xrotation Zrotation
    JOINT RightToe
    {
     OFFSET 0.000000 -4.915500 10.826300
     CHANNELS 3 Yrotation Xrotation Zrotation
     End Site
     {
      OFFSET 0.000000 -1.517500 6.175900
     }
    }
   }
  }
 }
 JOINT LeftHip
 {
  OFFSET 8.365600 -0.032100 -0.003200
  CHANNELS 3 Yrotation Xrotation Zrotation
  JOINT LeftKnee
  {
   OFFSET 0.000000 -43.980000 0.003100
   CHANNELS 3 Yrotation Xrotation Zrotation
   JOINT LeftAnkle
   {
    OFFSET 0.000000 -42.882800 0.005200
    CHANNELS 3 Yrotation Xrotation Zrotation
    JOINT LeftToe
    {
     OFFSET 0.000000 -4.915500 10.826300
     CHANNELS 3 Yrotation Xrotation Zrotation
     End Site
     {
      OFFSET 0.000000 -1.517500 6.175900
     }
    }
   }
  }
 }
}
MOTION
Frames: 13
Frame Time: 0.008333
0.000000 91.618600 0.000000 0.000000 -5.767877 0.000000 0.000000 11.653817 0.000000 0.000000 -5.885947 0.000000 0.000000 -0.000000 0.000000 0.000000 -0.000000 0.000000 0.000000 12.528835 0.000000 0.000000 0.711642 0.000000 0.000000 -0.000000 0.000000 0.000000 0.000000 -90.000000 0.000000 -2.309062 0.000000 0.000000 2.309062 0.000000 0.000000 -0.000000 0.000000 0.000000 -0.000000 90.000000 0.000000 -2.309062 0.000000 0.000000 2.309062 0.000000 0.000000 8.520406 0.000000 0.000000 1.905762 0.000000 -0.000000 -4.658285 0.000000 0.000000 -0.000000 0.000000 0.000000 8.520406 0.000000 0.000000 1.905762 0.000000 -0.000000 -4.658285 0.000000 0.000000 -0.000000 0.000000
-3.017721 147.178337 26.439902 175.801615 -19.237567 -4.892118 -1.294244 8.635505 3.515587 -0.098886 0.493763 0.215966 -0.150914 0.845250 0.365042 -1.279857 8.045881 3.400789 -1.228085 21.621072 -3.339810 -0.539228 -2.627262 -3.313933 2.566438 3.611682 -2.494345 16.341072 -15.703613 -4.725980 38.323099 -32.128771 -24.123403 -7.564809 -12.363568 -26.969785 -4.231147 6.442748 0.041030 -11.550249 -22.902792 1.088089 -36.989213 -24.139963 23.993597 -1.401797 -5.593248 24.519256 2.881548 -54.331685 -0.696890 -152.826718 70.315710 -145.865056 -2.728371 -30.971482 0.453245 0.032532 -0.154718 0.009930 -11.141922 -53.148744 8.890839 162.473324 72.409626 158.914920 -3.169692 -32.866444 1.184213 0.011860 0.113552 0.008815
-2.269108 140.611584 26.236124 175.840678 -19.237544 -4.953767 -1.328226 8.643790 3.568098 -0.098500 0.491792 0.213160 -0.152814 0.848895 0.368248 -1.287396 8.050193 3.400516 -1.180170 21.625737 -3.355875 -0.479714 -2.621229 -3.338675 2.583747 3.607408 -2.503007 16.339339 -15.699825 -4.722078 38.329944 -32.128181 -24.131667 -7.558623 -12.362196 -26.978018 -4.226983 6.439153 0.033386 -11.552168 -22.900170 1.088513 -36.981543 -24.141767 23.998119 -1.407509 -5.597292 24.529086 2.778581 -54.340129 -0.616766 -152.849673 70.304224 -145.884832 -2.705466 -31.046413 0.444391 0.015000 -0.082446 0.006804 -11.243921 -53.119089 8.969685 162.453541 72.427921 158.892174 -3.162410 -32.817482 1.185117 0.002653 0.064596 0.001204
-1.654126 135.203955 26.067627 175.852907 -19.245461 -4.988293 -1.350991 8.658268 3.598014 -0.087995 0.489238 0.211643 -0.167173 0.855989 0.369547 -1.287741 8.051434 3.397226 -1.127275 21.632079 -3.367804 -0.428365 -2.615780 -3.359638 2.609670 3.601388 -2.506817 16.337502 -15.696028 -4.718563 38.340475 -32.127773 -24.136963 -7.559494 -12.361121 -26.987916 -4.214736 6.436515 0.029804 -11.562327 -22.899343 1.096478 -36.966450 -24.142425 23.999952 -1.416173 -5.603125 24.542352 2.726356 -54.338857 -0.566534 -152.863656 70.295828 -145.895478 -2.695939 -31.079817 0.439534 0.009784 -0.052625 0.004439 -11.290570 -53.093123 9.014239 162.426388 72.430800 158.870484 -3.166666 -32.799531 1.178796 0.001518 0.040380 0.000689
-1.209223 131.298680 25.946562 175.870164 -19.251817 -5.019221 -1.368212 8.669640 3.622342 -0.089310 0.489744 0.213538 -0.166085 0.858051 0.367732 -1.294426 8.056869 3.394282 -1.091734 21.634137 -3.374788 -0.383379 -2.608012 -3.382916 2.630380 3.591348 -2.509033 16.330762 -15.694561 -4.714309 38.354361 -32.124424 -24.141181 -7.561363 -12.359392 -26.997154 -4.206996 6.430696 0.030349 -11.565437 -22.901026 1.102127 -36.987053 -24.131527 23.996198 -1.394830 -5.605601 24.564075 2.675897 -54.336619 -0.523010 -152.890918 70.290119 -145.924048 -2.691607 -31.121030 0.437548 0.001605 -0.018129 0.000728 -11.335891 -53.071336 9.052595 162.410284 72.438092 158.858190 -3.167018 -32.773926 1.173401 0.001051 0.013470 0.000477
-0.929699 128.832147 25.870983 175.871180 -19.256624 -5.026334 -1.371393 8.677784 3.627694 -0.092910 0.492856 0.213054 -0.160717 0.857305 0.368533 -1.296901 8.065260 3.392406 -1.078747 21.625003 -3.375635 -0.361114 -2.602764 -3.396563 2.646427 3.576520 -2.513756 16.328759 -15.686742 -4.702876 38.385689 -32.100415 -24.159156 -7.578903 -12.365246 -27.012513 -4.203014 6.418642 0.032861 -11.571893 -22.900701 1.107087 -37.000807 -24.127648 23.997616 -1.381400 -5.603182 24.576631 2.666494 -54.333313 -0.511114 -152.895566 70.285934 -145.930795 -2.690368 -31.134511 0.442609 -0.000090 -0.009704 -0.000041 -11.358530 -53.057157 9.069492 162.397803 72.442159 158.841290 -3.163132 -32.769751 1.165642 0.000684 0.008185 0.000311
-0.775961 127.476463 25.828336 175.873580 -19.272926 -5.028952 -1.371309 8.695831 3.628751 -0.093269 0.495101 0.212953 -0.160497 0.856652 0.368770 -1.297758 8.078563 3.390277 -1.054012 21.625717 -3.384880 -0.357979 -2.610101 -3.394168 2.660763 3.557871 -2.520039 16.337673 -15.676683 -4.697973 38.383538 -32.090094 -24.161914 -7.553154 -12.366022 -27.030771 -4.213823 6.408000 0.035501 -11.597960 -22.899989 1.128404 -36.987955 -24.131563 23.995202 -1.379294 -5.599204 24.601737 2.660912 -54.315209 -0.503665 -152.889315 70.283603 -145.926223 -2.693354 -31.142051 0.446447 0.000876 -0.005014 0.000398 -11.359025 -53.037047 9.067325 162.390471 72.445089 158.835819 -3.158608 -32.769162 1.159070 0.001310 0.002791 0.000595
-0.702749 126.831079 25.809353 175.874052 -19.281878 -5.029093 -1.370423 8.705537 3.628325 -0.095183 0.497598 0.211850 -0.158677 0.854199 0.370001 -1.295310 8.091389 3.384761 -1.036779 21.627261 -3.393173 -0.337628 -2.607972 -3.407086 2.671367 3.541073 -2.522649 16.329736 -15.672727 -4.688872 38.387633 -32.082738 -24.161760 -7.543184 -12.364268 -27.037228 -4.222610 6.403892 0.044741 -11.605267 -22.909118 1.136293 -36.984079 -24.131577 23.990718 -1.392533 -5.606427 24.614136 2.672050 -54.304917 -0.511928 -152.893236 70.281075 -145.924260 -2.695561 -31.145550 0.449770 0.001432 -0.002734 0.000650 -11.360810 -53.024703 9.068596 162.390783 72.449003 158.834259 -3.159019 -32.768531 1.158193 0.001248 0.001490 0.000567
-0.673122 126.567428 25.802477 175.872443 -19.290362 -5.025817 -1.368296 8.715251 3.625047 -0.099677 0.500141 0.209944 -0.154096 0.856490 0.371433 -1.302666 8.118167 3.374162 -1.021292 21.621629 -3.408603 -0.319345 -2.605396 -3.434163 2.692423 3.507149 -2.523582 16.342935 -15.667154 -4.682437 38.373741 -32.073953 -24.164432 -7.534127 -12.361183 -27.043471 -4.213557 6.377281 0.057431 -11.617877 -22.915079 1.147207 -36.980358 -24.131404 23.983104 -1.399068 -5.600021 24.623760 2.684218 -54.295241 -0.522431 -152.890617 70.276546 -145.922963 -2.692255 -31.148353 0.456309 -0.000441 -0.002072 -0.000200 -11.358115 -53.015237 9.064422 162.392941 72.450717 158.833488 -3.156934 -32.767404 1.157606 0.000141 0.000396 0.000064
-0.663033 126.476012 25.801424 175.872380 -19.296261 -5.023055 -1.375780 8.723845 3.617248 -0.094727 0.501172 0.212295 -0.161310 0.865468 0.368099 -1.294828 8.114243 3.376336 -1.018511 21.617216 -3.410149 -0.317867 -2.602098 -3.443332 2.701892 3.499552 -2.527793 16.376837 -15.657024 -4.688535 38.352971 -32.061692 -24.158767 -7.535214 -12.366087 -27.059331 -4.209305 6.373361 0.055306 -11.630855 -22.920240 1.163605 -36.991819 -24.124480 23.968040 -1.410746 -5.608795 24.640858 2.693463 -54.288241 -0.531777 -152.888235 70.267638 -145.921577 -2.687067 -31.152711 0.462132 -0.001550 -0.002547 -0.000704 -11.355464 -53.008426 9.059648 162.394250 72.452097 158.832761 -3.150496 -32.767501 1.154329 -0.000227 0.000407 -0.000103
-0.660166 126.449649 25.802547 175.871204 -19.301114 -5.021013 -1.376843 8.734585 3.612315 -0.092428 0.496513 0.214878 -0.162257 0.869465 0.367286 -1.293928 8.117824 3.375973 -1.022767 21.623562 -3.423327 -0.315875 -2.610843 -3.442953 2.711499 3.492395 -2.534969 16.380202 -15.654769 -4.684996 38.373099 -32.043129 -24.149437 -7.556693 -12.375522 -27.086021 -4.205045 6.369294 0.050778 -11.642128 -22.925724 1.182873 -37.003377 -24.121777 23.953382 -1.402952 -5.615009 24.652533 2.698925 -54.282963 -0.536223 -152.886035 70.263516 -145.919532 -2.687047 -31.151950 0.466928 -0.001170 -0.003097 -0.000531 -11.353914 -53.001567 9.056138 162.402681 72.455247 158.838366 -3.138682 -32.771702 1.148062 -0.001137 0.001114 -0.000516
-0.658833 126.444608 25.801609 175.867560 -19.321534 -5.021499 -1.371796 8.755428 3.612860 -0.093611 0.500163 0.213259 -0.161085 0.866821 0.369097 -1.294053 8.135454 3.373398 -1.043523 21.624359 -3.449814 -0.313631 -2.624478 -3.445217 2.733274 3.477256 -2.547720 16.380413 -15.644723 -4.687945 38.384912 -32.043444 -24.136751 -7.579326 -12.382914 -27.116348 -4.198214 6.354840 0.047983 -11.651856 -22.930028 1.201667 -37.007808 -24.127837 23.938319 -1.403329 -5.613827 24.661734 2.703346 -54.261323 -0.532649 -152.876272 70.260727 -145.910697 -2.689539 -31.149943 0.474106 -0.001502 -0.004606 -0.000682 -11.344087 -52.978486 9.048727 162.423533 72.455209 158.863123 -3.119923 -32.779666 1.137213 0.000503 0.000182 0.000228
-0.658411 126.444013 25.802603 175.867507 -19.329802 -5.021990 -1.370207 8.765312 3.610259 -0.093692 0.501420 0.213181 -0.161004 0.869002 0.368869 -1.290331 8.166286 3.363194 -1.054679 21.597127 -3.450212 -0.323391 -2.632677 -3.453017 2.751668 3.444721 -2.552417 16.383841 -15.637279 -4.688297 38.385157 -32.044812 -24.125438 -7.575041 -12.382352 -27.150840 -4.192573 6.323545 0.056869 -11.659786 -22.932078 1.216417 -37.013337 -24.126987 23.931462 -1.397482 -5.615035 24.669146 2.711136 -54.247774 -0.533771 -152.857783 70.261533 -145.890778 -2.691875 -31.148661 0.481085 -0.001343 -0.002105 -0.000610 -11.342725 -52.967922 9.046277 162.424896 72.455896 158.868258 -3.128742 -32.786973 1.140675 0.000097 0.000304 0.000044
